<?xml version="1.0" standalone="no"?><!DOCTYPE svg PUBLIC "-//W3C//DTD SVG 1.1//EN" "http://www.w3.org/Graphics/SVG/1.1/DTD/svg11.dtd"><svg t="1515744978241" class="icon" style="" viewBox="0 0 1024 1024" version="1.1" xmlns="http://www.w3.org/2000/svg" p-id="4812" xmlns:xlink="http://www.w3.org/1999/xlink" width="200" height="200"><defs><style type="text/css"></style></defs><path d="M790.552 113.86 233.449333 113.86l0 705.392 557.101333 0L790.550667 113.86zM569.978667 56.926667c0-6.326667-5.153333-11.48-11.473333-11.48l-116.082667 0c-6.329333 0-11.713333 5.153333-11.713333 11.48l0 11.246667c0 6.326667 5.269333 11.48 11.713333 11.48l116.082667 0c6.32 0 11.473333-5.153333 11.473333-11.48L569.978667 56.926667zM511.998667 955.710667c25.653333 0 46.506667-20.506667 46.506667-45.686667 0-24.946667-20.853333-45.446667-46.506667-45.446667s-46.502667 20.5-46.502667 45.446667C465.496 935.324 486.462667 955.710667 511.998667 955.710667zM790.552 1023.997333 233.449333 1023.997333c-38.536 0-69.576-30.573333-69.576-68.173333L163.873333 68.173333c0-37.72 31.16-68.173333 69.576-68.173333l557.101333 0c38.526667 0 69.573333 30.573333 69.573333 68.173333l0 887.650667C860.124 993.424 829.077333 1023.997333 790.552 1023.997333z" p-id="4813"></path></svg>
